# xmcd
#
# Track frame offsets: 
#        150
#        18479
#        35361
#        54613
#        64014
#        76106
#        92221
#        104403
#        127436
#        146382
#        184656
#        199533
#        212603
#        232252
#
# Disc length: 3347 seconds
#
# Revision: 0
# Processed by: cddbd v1.5.1PL0 Copyright (c) Steve Scherf et al.
# Submitted via: ExactAudioCopy v0.95a5
#
DISCID=c60d110e
DTITLE=Leo Kottke - Live at KTCI Studios December 4th, 1981
DYEAR=1900
DGENRE=Acoustic
TTITLE0=June Bug>The Bungle Party
TTITLE1=Pamela Brown
TTITLE2=Shadowland
TTITLE3=Wheels
TTITLE4=Mr. Fonebone
TTITLE5=From the Cradle to the Grave
TTITLE6=I Yell at Traffic
TTITLE7=Ojo
TTITLE8=Eight Miles High
TTITLE9=Last Steam Engine Train>Stealing>Airproofing
TTITLE10=Saginaw, Michigan
TTITLE11=Standing in My Shoes
TTITLE12=Hear the Wind Howl
TTITLE13=Up Tempo
EXTD=
EXTT0=
EXTT1=
EXTT2=
EXTT3=
EXTT4=
EXTT5=
EXTT6=
EXTT7=
EXTT8=
EXTT9=
EXTT10=
EXTT11=
EXTT12=
EXTT13=
PLAYORDER=
